<?xml version="1.0" encoding="UTF-8" standalone="no"?>
<!-- Created with Inkscape (http://www.inkscape.org/) -->
<svg
   xmlns:dc="http://purl.org/dc/elements/1.1/"
   xmlns:cc="http://web.resource.org/cc/"
   xmlns:rdf="http://www.w3.org/1999/02/22-rdf-syntax-ns#"
   xmlns:svg="http://www.w3.org/2000/svg"
   xmlns="http://www.w3.org/2000/svg"
   xmlns:xlink="http://www.w3.org/1999/xlink"
   xmlns:sodipodi="http://sodipodi.sourceforge.net/DTD/sodipodi-0.dtd"
   xmlns:inkscape="http://www.inkscape.org/namespaces/inkscape"
   width="303.83987"
   height="853.52087"
   id="svg2212"
   sodipodi:version="0.32"
   inkscape:version="0.45"
   version="1.0"
   sodipodi:docbase="/home/hegemon/Documents/Media"
   sodipodi:docname="GITS-MISC.svg"
   inkscape:output_extension="org.inkscape.output.svg.inkscape"
   inkscape:export-filename="/home/hegemon/Documents/Media/GITS-MISC.png"
   inkscape:export-xdpi="162.91342"
   inkscape:export-ydpi="162.91342"
   sodipodi:modified="TRUE">
  <defs
     id="defs2214" />
  <sodipodi:namedview
     id="base"
     pagecolor="#ffffff"
     bordercolor="#666666"
     borderopacity="1.0"
     gridtolerance="10000"
     guidetolerance="10"
     objecttolerance="10"
     inkscape:pageopacity="0.0"
     inkscape:pageshadow="2"
     inkscape:zoom="1.0005267"
     inkscape:cx="277.33905"
     inkscape:cy="639.10836"
     inkscape:document-units="px"
     inkscape:current-layer="layer1"
     height="900px"
     width="305.11478px"
     inkscape:window-width="865"
     inkscape:window-height="866"
     inkscape:window-x="504"
     inkscape:window-y="63" />
  <metadata
     id="metadata2217">
    <rdf:RDF>
      <cc:Work
         rdf:about="">
        <dc:format>image/svg+xml</dc:format>
        <dc:type
           rdf:resource="http://purl.org/dc/dcmitype/StillImage" />
        <cc:license
           rdf:resource="http://creativecommons.org/licenses/GPL/2.0/" />
        <dc:title>Ghost in the Shell - Misc Vector Art</dc:title>
        <dc:date>2007-05-14</dc:date>
        <dc:creator>
          <cc:Agent>
            <dc:title>H3g3m0n</dc:title>
          </cc:Agent>
        </dc:creator>
        <dc:contributor>
          <cc:Agent>
            <dc:title>euxneks: http://www.kde-look.org/content/show.php/Laughing+Man+SVG?content=19477</dc:title>
          </cc:Agent>
        </dc:contributor>
        <dc:description>Based upon the Ghost in the Shell: SAC anime

* INTER GATE: the gates that features in some of the cyberspace scenes.

* Communication Window: The comunication window that is shown when characters are talking with each other via their cyberbrains. Similar windows are used for documents, emails etc... so it might make a good template for the other types of windows.

* Laughing Man Logo: The logo the puppet master uses to obsecure himself from public view (modified version of one by euxneks), this version has a slightly diffrent text and should be eaiser to animate by rotating the text.</dc:description>
        <dc:subject>
          <rdf:Bag>
            <rdf:li>Ghost in the Shell</rdf:li>
            <rdf:li>GITS</rdf:li>
            <rdf:li>SAC</rdf:li>
            <rdf:li>SAC2</rdf:li>
            <rdf:li>Solid State Society</rdf:li>
            <rdf:li>Cyberspace</rdf:li>
            <rdf:li>Matrix</rdf:li>
            <rdf:li>Metaverse</rdf:li>
            <rdf:li>Logo</rdf:li>
            <rdf:li>Laughing Man</rdf:li>
            <rdf:li>Laughing</rdf:li>
            <rdf:li>Man</rdf:li>
            <rdf:li>Ghost</rdf:li>
            <rdf:li>Shell</rdf:li>
            <rdf:li>Solid</rdf:li>
            <rdf:li>State</rdf:li>
            <rdf:li>Society</rdf:li>
            <rdf:li>Inter Gate</rdf:li>
            <rdf:li>InterGate</rdf:li>
            <rdf:li>ONLINE</rdf:li>
            <rdf:li>CAUTION</rdf:li>
          </rdf:Bag>
        </dc:subject>
      </cc:Work>
      <cc:License
         rdf:about="http://creativecommons.org/licenses/GPL/2.0/">
        <cc:permits
           rdf:resource="http://web.resource.org/cc/Reproduction" />
        <cc:permits
           rdf:resource="http://web.resource.org/cc/Distribution" />
        <cc:requires
           rdf:resource="http://web.resource.org/cc/Notice" />
        <cc:permits
           rdf:resource="http://web.resource.org/cc/DerivativeWorks" />
        <cc:requires
           rdf:resource="http://web.resource.org/cc/ShareAlike" />
        <cc:requires
           rdf:resource="http://web.resource.org/cc/SourceCode" />
      </cc:License>
    </rdf:RDF>
  </metadata>
  <g
     inkscape:label="Layer 1"
     inkscape:groupmode="layer"
     id="layer1"
     transform="translate(-13.462809,-13.947923)">
    <g
       transform="matrix(1.5368283,0,0,1.5368283,-93.435258,-414.85098)"
       id="g2280"
       inkscape:label="Layer 1">
      <g
         id="g2277">
        <path
           transform="translate(-7.0329643,188.82045)"
           d="M 237.06453 167.01804 A 61.414371 61.414371 0 1 1  114.23579,167.01804 A 61.414371 61.414371 0 1 1  237.06453 167.01804 z"
           sodipodi:ry="61.414371"
           sodipodi:rx="61.414371"
           sodipodi:cy="167.01804"
           sodipodi:cx="175.65016"
           id="path35672"
           style="opacity:1;fill:#0e7de5;fill-opacity:1;stroke:none;stroke-width:0.1;stroke-miterlimit:4;stroke-dasharray:none;stroke-opacity:1"
           sodipodi:type="arc" />
        <rect
           style="opacity:1;fill:#041b2c;fill-opacity:1;stroke:none;stroke-width:0.75;stroke-linejoin:miter;stroke-miterlimit:4;stroke-dasharray:none;stroke-opacity:1"
           id="rect4140"
           width="127.5"
           height="2.75"
           x="104.21429"
           y="368.46194" />
        <rect
           y="340.46194"
           x="104.21429"
           height="2.75"
           width="127.5"
           id="rect4138"
           style="opacity:1;fill:#041b2c;fill-opacity:1;stroke:none;stroke-width:0.75;stroke-linejoin:miter;stroke-miterlimit:4;stroke-dasharray:none;stroke-opacity:1" />
        <rect
           style="opacity:1;fill:#041b2c;fill-opacity:1;stroke:none;stroke-width:0.75;stroke-linejoin:miter;stroke-miterlimit:4;stroke-dasharray:none;stroke-opacity:1"
           id="rect4136"
           width="127.5"
           height="23"
           x="104.21429"
           y="344.21194" />
        <path
           style="opacity:1;fill:#ffffff;fill-opacity:1;stroke:#1d2c8f;stroke-width:0.4880181;stroke-miterlimit:4;stroke-dasharray:none;stroke-opacity:1"
           d="M 168.62054,279.2595 C 139.16289,279.2595 113.58855,295.94119 100.77679,320.35325 L 95.370536,317.54075 C 94.783476,318.6637 94.314306,319.64327 93.776786,320.79075 L 99.276786,323.35325 C 96.359436,329.56034 94.252476,336.218 93.089286,343.197 L 84.120536,341.697 C 83.990449,342.47437 83.886478,343.13523 83.776786,343.91575 L 92.776786,345.197 C 92.600675,346.4585 92.455012,347.73077 92.339286,349.0095 L 85.964286,349.0095 L 85.964286,350.35325 L 80.933036,350.35325 L 80.933036,353.3845 L 80.933036,354.322 L 80.933036,378.41575 L 80.933036,380.572 L 80.933036,381.0095 L 80.933036,382.72825 L 80.933036,383.16575 L 80.933036,385.35325 L 89.933036,400.697 L 89.933036,404.35325 L 84.964286,404.35325 L 84.964286,448.322 L 129.02679,448.322 L 129.02679,437.322 L 137.96429,437.322 L 137.99554,437.322 L 137.99554,437.29075 L 147.37054,429.41575 C 154.12021,431.36493 161.24509,432.41575 168.62054,432.41575 C 186.68142,432.41575 203.27508,426.13435 216.37054,415.66575 L 222.05804,422.79075 C 222.50976,422.43015 222.89458,422.1287 223.33929,421.7595 L 217.52679,414.72825 C 232.84055,401.99245 243.11674,383.41785 244.90179,362.41575 L 250.49554,362.41575 L 250.49554,349.0095 L 244.87054,349.0095 C 244.57815,345.75044 244.08663,342.54476 243.40179,339.41575 L 249.33929,338.10325 C 249.05631,336.81616 248.77412,335.71993 248.43304,334.447 L 242.58929,336.0095 C 233.84087,303.34921 204.02529,279.25951 168.62054,279.2595 z M 168.62054,281.04075 C 203.21382,281.04076 232.35723,304.56619 240.90179,336.47825 L 239.15179,336.947 C 230.80521,305.80193 202.38871,282.822 168.62054,282.822 C 140.52913,282.82201 116.14825,298.73533 103.93304,322.0095 L 102.33929,321.16575 C 114.85134,297.32037 139.8428,281.04075 168.62054,281.04075 z M 168.62054,294.447 C 202.52141,294.447 230.02679,321.95966 230.02679,355.85325 C 230.0268,389.74685 202.52139,417.2595 168.62054,417.2595 C 158.6843,417.2595 149.30145,414.89193 140.99554,410.697 L 140.99554,404.35325 L 130.99554,404.35325 C 116.52726,393.11558 107.21429,375.57643 107.21429,355.85325 C 107.21429,321.95966 134.71969,294.447 168.62054,294.447 z M 100.87054,324.10325 L 102.52679,324.8845 C 99.751206,330.79119 97.731356,337.11974 96.620536,343.7595 L 94.870536,343.47825 C 96.006556,336.67494 98.028086,330.15491 100.87054,324.10325 z M 241.68304,339.79075 C 242.34386,342.80472 242.83104,345.87524 243.12054,349.0095 L 241.30804,349.0095 C 241.02156,346.00861 240.56858,343.05931 239.93304,340.16575 L 241.68304,339.79075 z M 94.558036,345.447 L 96.308036,345.697 C 96.154476,346.79604 96.038976,347.89955 95.933036,349.0095 L 94.151786,349.0095 C 94.265206,347.81517 94.393436,346.62643 94.558036,345.447 z M 82.901786,354.322 L 85.964286,354.322 L 85.964286,362.41575 L 92.339286,362.41575 C 93.100086,371.33934 95.405096,379.81398 98.964286,387.60325 L 93.245536,393.322 L 93.245536,397.22825 L 93.245536,404.35325 L 91.964286,404.35325 L 91.964286,404.16575 L 91.995536,404.22825 L 91.995536,402.04075 L 91.995536,401.60325 L 91.995536,399.8845 L 91.995536,399.447 L 91.995536,397.29075 L 82.901786,381.7595 L 82.901786,354.322 z M 94.089286,362.41575 L 95.901786,362.41575 C 96.610566,370.35917 98.601606,377.93859 101.65179,384.947 L 100.30804,386.29075 C 96.994616,378.8875 94.824266,370.86089 94.089286,362.41575 z M 241.33929,362.41575 L 243.15179,362.41575 C 241.36583,382.87139 231.30456,400.94591 216.37054,413.35325 L 215.27679,412.0095 C 229.80312,399.92628 239.56175,382.31426 241.33929,362.41575 z M 102.87054,387.60325 C 103.62792,389.16851 104.44465,390.69633 105.30804,392.197 L 103.83929,393.22825 C 103.02666,391.82708 102.24897,390.40388 101.52679,388.947 L 102.87054,387.60325 z M 100.24554,390.2595 C 100.9261,391.60903 101.64521,392.92589 102.40179,394.22825 C 102.40635,394.2361 102.39723,394.25166 102.40179,394.2595 L 97.964286,397.35325 L 97.933036,397.35325 L 97.933036,404.35325 L 94.589286,404.35325 L 94.589286,395.8845 L 100.24554,390.2595 z M 106.96429,394.91575 C 109.08426,398.25501 111.47346,401.4098 114.08929,404.35325 L 111.74554,404.35325 C 109.47734,401.70121 107.38035,398.90058 105.49554,395.947 L 106.96429,394.91575 z M 104.02679,396.947 C 105.6743,399.5299 107.49648,401.99285 109.43304,404.35325 L 100.93304,404.35325 L 100.93304,399.1345 L 104.02679,396.947 z M 214.18304,412.8845 L 215.27679,414.2595 C 202.47735,424.4917 186.27194,430.6345 168.62054,430.6345 C 161.84617,430.6345 155.30042,429.69857 149.05804,428.0095 L 150.68304,426.6345 C 156.42535,428.08772 162.4275,428.8845 168.62054,428.8845 C 185.86025,428.8845 201.68688,422.88235 214.18304,412.8845 z M 129.02679,418.47825 L 131.08929,418.47825 C 136.08525,421.48553 141.46853,423.91675 147.15179,425.66575 L 145.58929,426.97825 C 139.71962,425.07834 134.16131,422.46842 129.02679,419.2595 L 129.02679,418.47825 z M 129.02679,421.35325 C 133.70544,424.18959 138.70149,426.56245 143.96429,428.35325 L 137.99554,433.35325 L 137.96429,433.35325 L 129.02679,433.35325 L 129.02679,421.35325 z "
           id="path32821" />
        <path
           transform="matrix(1.027759,9.46574e-2,-9.46574e-2,1.027759,3.9007057,167.55766)"
           d="M 237.06453 167.01804 A 61.414371 61.414371 0 1 1  114.23579,167.01804 A 61.414371 61.414371 0 1 1  237.06453 167.01804 z"
           sodipodi:ry="61.414371"
           sodipodi:rx="61.414371"
           sodipodi:cy="167.01804"
           sodipodi:cx="175.65016"
           id="path35566"
           style="opacity:0.4;fill:none;fill-opacity:1;stroke:none;stroke-width:0.1;stroke-miterlimit:4;stroke-dasharray:none;stroke-opacity:1"
           sodipodi:type="arc" />
        <path
           sodipodi:type="arc"
           style="opacity:0.4;fill:none;fill-opacity:1;stroke:none;stroke-width:0.1;stroke-miterlimit:4;stroke-dasharray:none;stroke-opacity:1"
           id="path35617"
           sodipodi:cx="175.65016"
           sodipodi:cy="167.01804"
           sodipodi:rx="61.414371"
           sodipodi:ry="61.414371"
           d="M 237.06453 167.01804 A 61.414371 61.414371 0 1 1  114.23579,167.01804 A 61.414371 61.414371 0 1 1  237.06453 167.01804 z"
           transform="matrix(-1.028563,-8.548187e-2,8.548187e-2,-1.028563,335.00749,542.64195)" />
        <rect
           y="405.90234"
           x="86.518311"
           height="41.025768"
           width="6.4198222"
           id="rect2125"
           style="fill:#ffff00;fill-opacity:1;stroke:none" />
        <rect
           style="fill:#ffff00;fill-opacity:1;stroke:none"
           id="rect2033"
           width="6.4198222"
           height="41.025768"
           x="120.42963"
           y="405.90234" />
        <path
           style="fill:#000000;fill-opacity:1;stroke:none"
           d="M 86.233388,405.39974 L 86.233388,447.17964 L 127.04622,447.17964 L 127.04622,405.39974 L 86.233388,405.39974 z M 87.101746,406.20923 L 92.33903,406.20923 L 92.33903,446.31793 L 87.101746,446.31793 L 87.101746,406.20923 z M 93.180256,406.20923 L 120.12649,406.20923 L 120.12649,446.31793 L 93.180256,446.31793 L 93.180256,406.20923 z M 120.99485,406.20923 L 126.205,406.20923 L 126.205,446.31793 L 120.99485,446.31793 L 120.99485,406.20923 z "
           id="rect2014" />
        <text
           xml:space="preserve"
           style="font-size:6.09969807px;font-style:normal;font-weight:normal;fill:#000000;fill-opacity:1;stroke:none;stroke-width:1px;stroke-linecap:butt;stroke-linejoin:miter;stroke-opacity:1;font-family:Impact"
           x="76.95813"
           y="501.3457"
           id="text2029"
           transform="scale(1.219722,0.819859)"><tspan
             sodipodi:role="line"
             id="tspan2031"
             x="76.95813"
             y="501.3457">CAUTION</tspan></text>
        <g
           id="g2089"
           transform="matrix(0.617397,0,0,0.757219,-323.11051,265.6328)">
          <path
             style="opacity:1;fill:#000000;fill-opacity:1;stroke:none"
             d="M 434.09375,217.59375 L 434.09375,221.0625 L 440.21875,224.34375 L 440.21875,220.875 L 434.09375,217.59375 z M 434.09375,224.21875 L 434.09375,227.6875 L 440.21875,230.96875 L 440.21875,227.5 L 434.09375,224.21875 z M 434.09375,230.84375 L 434.09375,234.3125 L 440.21875,237.59375 L 440.21875,234.125 L 434.09375,230.84375 z M 434.09375,237.46875 L 434.09375,240.9375 L 440.21875,244.21875 L 440.21875,240.75 L 434.09375,237.46875 z M 434.09375,244.09375 L 434.09375,247.5625 L 440.21875,250.84375 L 440.21875,247.375 L 434.09375,244.09375 z M 434.09375,250.71875 L 434.09375,254.21875 L 440.21875,257.46875 L 440.21875,254 L 434.09375,250.71875 z M 434.09375,257.375 L 434.09375,260.84375 L 440.21875,264.09375 L 440.21875,260.625 L 434.09375,257.375 z M 434.09375,264 L 434.09375,266.375 L 438.5625,266.375 L 434.09375,264 z "
             id="rect2051"
             transform="matrix(1.406482,0,0,1.103509,108.6419,-54.57179)" />
          <path
             id="path2123"
             d="M 664.36327,185.54487 L 664.36327,189.37267 L 672.97797,192.99356 L 672.97797,189.16576 L 664.36327,185.54487 z M 664.36327,192.85562 L 664.36327,196.68342 L 672.97797,200.3043 L 672.97797,196.47651 L 664.36327,192.85562 z M 664.36327,200.16637 L 664.36327,203.99416 L 672.97797,207.61505 L 672.97797,203.78725 L 664.36327,200.16637 z M 664.36327,207.47711 L 664.36327,211.30491 L 672.97797,214.9258 L 672.97797,211.098 L 664.36327,207.47711 z M 664.36327,214.78786 L 664.36327,218.61566 L 672.97797,222.23655 L 672.97797,218.40875 L 664.36327,214.78786 z M 664.36327,222.09861 L 664.36327,225.96089 L 672.97797,229.54729 L 672.97797,225.7195 L 664.36327,222.09861 z M 664.36327,229.44384 L 664.36327,233.27164 L 672.97797,236.85804 L 672.97797,233.03024 L 664.36327,229.44384 z M 664.36327,236.75459 L 664.36327,239.37542 L 670.64849,239.37542 L 664.36327,236.75459 z "
             style="opacity:1;fill:#000000;fill-opacity:1;stroke:none" />
        </g>
        <rect
           style="opacity:1;fill:#000000;fill-opacity:1;stroke-width:0.1;stroke-miterlimit:4;stroke-dasharray:none;stroke-opacity:1"
           id="rect32833"
           width="8.3402233"
           height="8.3402233"
           x="96.986488"
           y="351.54184" />
        <rect
           y="351.54184"
           x="232.05342"
           height="8.3402233"
           width="8.3402233"
           id="rect32835"
           style="opacity:1;fill:#000000;fill-opacity:1;stroke-width:0.1;stroke-miterlimit:4;stroke-dasharray:none;stroke-opacity:1" />
        <rect
           style="opacity:1;fill:#000000;fill-opacity:1;stroke-width:0.1;stroke-miterlimit:4;stroke-dasharray:none;stroke-opacity:1"
           id="rect32837"
           width="8.3402233"
           height="8.3402233"
           x="164.45042"
           y="284.31476" />
        <text
           xml:space="preserve"
           style="font-size:8px;font-style:normal;font-weight:normal;fill:#6aec6a;fill-opacity:1;stroke:none;stroke-width:1px;stroke-linecap:butt;stroke-linejoin:miter;stroke-opacity:1;font-family:Impact"
           id="text32839"><textPath
             xlink:href="#path35566"
             id="textPath35568"><tspan
   style="font-size:8px;fill:#6aec6a;fill-opacity:1;font-family:DejaVu Sans"
   id="tspan32841">ONLINE</tspan></textPath></text>
        <text
           id="text35571"
           style="font-size:8px;font-style:normal;font-weight:normal;fill:#6aec6a;fill-opacity:1;stroke:none;stroke-width:1px;stroke-linecap:butt;stroke-linejoin:miter;stroke-opacity:1;font-family:Impact"
           xml:space="preserve"><textPath
             xlink:href="#path35582"
             id="textPath35584"><tspan
   id="tspan35575"
   style="font-size:8px;fill:#6aec6a;fill-opacity:1;font-family:DejaVu Sans">ONLINE</tspan></textPath></text>
        <path
           sodipodi:type="arc"
           style="opacity:0.4;fill:none;fill-opacity:1;stroke:none;stroke-width:0.1;stroke-miterlimit:4;stroke-dasharray:none;stroke-opacity:1"
           id="path35582"
           sodipodi:cx="175.65016"
           sodipodi:cy="167.01804"
           sodipodi:rx="61.414371"
           sodipodi:ry="61.414371"
           d="M 237.06453 167.01804 A 61.414371 61.414371 0 1 1  114.23579,167.01804 A 61.414371 61.414371 0 1 1  237.06453 167.01804 z"
           transform="matrix(7.968567e-2,-1.029028,1.029028,7.968567e-2,-17.245801,523.27855)" />
        <text
           id="text35619"
           style="font-size:8px;font-style:normal;font-weight:normal;fill:#6aec6a;fill-opacity:1;stroke:none;stroke-width:1px;stroke-linecap:butt;stroke-linejoin:miter;stroke-opacity:1;font-family:Impact"
           xml:space="preserve"><textPath
             xlink:href="#path35617"
             id="textPath35626"><tspan
   id="tspan35623"
   style="font-size:8px;fill:#6aec6a;fill-opacity:1;font-family:DejaVu Sans">ONLINE</tspan></textPath></text>
        <rect
           style="opacity:1;fill:#000000;fill-opacity:1;stroke:none;stroke-width:0.1;stroke-miterlimit:4;stroke-dasharray:none;stroke-opacity:1"
           id="rect35629"
           width="10.984238"
           height="10.188279"
           x="127.90069"
           y="406.31171" />
        <flowRoot
           xml:space="preserve"
           id="flowRoot3178"
           style="font-size:1px"
           transform="matrix(1.040835,0,0,1.040835,-11.936513,182.56884)"><flowRegion
             id="flowRegion3180"><rect
               id="rect3182"
               width="24.75"
               height="33.3125"
               x="101.625"
               y="220.1875"
               style="font-size:1px" /></flowRegion><flowPara
             id="flowPara3256">&lt;?xml version=&quot;1.0&quot; encoding=&quot;UTF-8&quot; standalone=&quot;no&quot;?&gt;</flowPara><flowPara
             id="flowPara3960">&lt;!-- Created with Inkscape (http://www.inkscape.org/) --&gt;</flowPara><flowPara
             id="flowPara3962">&lt;svg</flowPara><flowPara
             id="flowPara3964">   xmlns:dc=&quot;http://purl.org/dc/elements/1.1/&quot;</flowPara><flowPara
             id="flowPara3966">   xmlns:cc=&quot;http://web.resource.org/cc/&quot;</flowPara><flowPara
             id="flowPara3968">   xmlns:rdf=&quot;http://www.w3.org/1999/02/22-rdf-syntax-ns#&quot;</flowPara><flowPara
             id="flowPara3970">   xmlns:svg=&quot;http://www.w3.org/2000/svg&quot;</flowPara><flowPara
             id="flowPara3972">   xmlns=&quot;http://www.w3.org/2000/svg&quot;</flowPara><flowPara
             id="flowPara3974">   xmlns:sodipodi=&quot;http://sodipodi.sourceforge.net/DTD/sodipodi-0.dtd&quot;</flowPara><flowPara
             id="flowPara3976">   xmlns:inkscape=&quot;http://www.inkscape.org/namespaces/inkscape&quot;</flowPara><flowPara
             id="flowPara3978">   width=&quot;744.09448819&quot;</flowPara><flowPara
             id="flowPara3980">   height=&quot;1052.3622047&quot;</flowPara><flowPara
             id="flowPara3982">   id=&quot;svg2&quot;</flowPara><flowPara
             id="flowPara3984">   sodipodi:version=&quot;0.32&quot;</flowPara><flowPara
             id="flowPara3988">   inkscape:version=&quot;0.44&quot;</flowPara><flowPara
             id="flowPara3992">  &lt;metadata</flowPara><flowPara
             id="flowPara3994">     id=&quot;metadata7&quot;&gt;</flowPara><flowPara
             id="flowPara3996">    &lt;rdf:RDF&gt;</flowPara><flowPara
             id="flowPara3998">      &lt;cc:Work</flowPara><flowPara
             id="flowPara4000">         rdf:about=&quot;&quot;&gt;</flowPara><flowPara
             id="flowPara4002">        &lt;dc:format&gt;image/svg+xml&lt;/dc:format&gt;</flowPara><flowPara
             id="flowPara4030" /></flowRoot>      </g>
    </g>
    <g
       transform="matrix(1.281802,0,0,1.281802,-308.82635,47.29873)"
       id="g2482"
       inkscape:label="Layer 1">
      <g
         id="g2451">
        <rect
           style="opacity:1;fill:#deebf2;fill-opacity:1;stroke:#003e6b;stroke-width:0.78015155;stroke-miterlimit:4;stroke-dasharray:none;stroke-opacity:1"
           id="rect7638"
           width="37.965912"
           height="6.46913"
           x="343.67307"
           y="342.04581" />
        <rect
           y="343.23987"
           x="344.90732"
           height="4.0809841"
           width="35.49725"
           id="rect1994"
           style="opacity:1;fill:#003e6b;fill-opacity:1;stroke-width:0.99999917;stroke-miterlimit:4;stroke-dasharray:none;stroke-opacity:1" />
        <path
           style="fill:#deebf2;fill-opacity:1;fill-rule:evenodd;stroke:#003e6b;stroke-width:0.78015161;stroke-linecap:butt;stroke-linejoin:miter;stroke-miterlimit:4;stroke-dasharray:none;stroke-opacity:1"
           d="M 425.59795,312.78695 C 425.38956,313.15055 425.18985,313.51951 424.97295,313.8807 L 436.53545,320.8182 L 436.91045,333.3807 L 429.53545,345.53695 L 423.7542,345.53695 L 423.3792,345.53695 L 423.16045,345.84945 L 404.72295,371.2557 L 381.7542,370.8807 L 381.72295,372.3807 L 405.09795,372.7557 L 405.5042,372.78695 L 405.72295,372.47445 L 424.16045,347.03695 L 429.97295,347.03695 L 430.3792,347.03695 L 430.59795,346.6932 L 438.28545,334.0057 L 438.41045,333.8182 L 438.3792,333.59945 L 438.0667,321.72445 L 449.1917,328.41195 C 449.49611,327.90532 449.77169,327.38979 450.0667,326.8807 L 425.59795,312.78695 z M 299.7542,313.03695 L 275.72295,326.91195 C 276.01156,327.4112 276.2998,327.91573 276.59795,328.41195 L 289.8792,320.4432 L 293.6917,327.4432 L 293.41045,335.22445 L 293.3792,335.5682 L 293.66045,335.8182 L 302.47295,343.41195 L 302.72295,343.59945 L 303.0667,343.59945 L 316.97295,342.5057 L 327.34795,354.72445 L 327.59795,354.97445 L 327.9417,354.97445 L 343.47295,354.59945 L 343.4417,353.0682 L 328.28545,353.47445 L 317.8792,341.1932 L 317.6292,340.91195 L 317.2542,340.9432 L 303.2542,342.0682 L 294.9417,334.9432 L 295.22295,327.3182 L 295.22295,327.09945 L 295.1292,326.91195 L 291.1917,319.66195 L 300.3792,314.1307 C 300.16202,313.77215 299.96334,313.40104 299.7542,313.03695 z "
           id="path25317" />
        <path
           style="opacity:1;fill:#deebf2;fill-opacity:1;stroke:#003e6b;stroke-width:0.78015167;stroke-miterlimit:4;stroke-dasharray:none;stroke-opacity:1"
           d="M 361.6917,175.8807 C 345.45671,176.01611 329.03752,180.08598 313.84795,188.5057 C 265.24134,215.44878 247.65487,276.77408 274.59795,325.3807 L 299.09795,311.78695 C 298.4218,310.57046 297.7679,309.32562 297.16045,308.0682 L 300.3792,306.16195 L 300.41045,306.16195 L 303.8167,292.7557 L 309.16045,289.59945 C 313.50554,307.52398 326.60424,322.01889 343.6917,328.28695 L 343.6917,339.91195 L 381.6292,339.91195 L 381.6292,328.28695 C 397.01809,322.64197 409.15765,310.30543 414.59795,294.8182 L 417.66045,295.6932 L 424.4417,307.78695 L 427.8167,308.7557 C 427.30817,309.78257 426.77784,310.78863 426.22295,311.78695 L 450.72295,325.3807 C 468.08627,294.05644 468.08627,259.07995 450.72295,227.7557 C 432.19958,194.33865 397.40868,175.5828 361.6917,175.8807 z M 362.66045,203.8807 C 384.017,203.88069 403.23324,213.10732 416.53545,227.78695 L 413.4417,230.1932 L 411.72295,243.9432 L 408.66045,246.3182 C 398.81284,231.36598 381.89143,221.47445 362.66045,221.47445 C 345.5166,221.47446 330.19727,229.3339 320.09795,241.6307 L 318.47295,240.1932 L 317.6292,226.34945 L 317.59795,226.34945 L 313.6917,222.8807 C 326.61034,211.08887 343.80141,203.8807 362.66045,203.8807 z M 312.6917,223.8182 L 316.28545,227.0057 L 317.1292,240.84945 L 319.22295,242.6932 C 317.84214,244.463 316.57043,246.32251 315.41045,248.2557 L 311.91045,246.34945 L 308.0042,233.0682 L 307.97295,233.03695 L 305.5042,231.6932 C 307.70734,228.89134 310.10792,226.26702 312.6917,223.8182 z M 417.4417,228.8182 C 421.91487,233.94399 425.6603,239.70637 428.5667,245.9432 L 424.8792,247.59945 L 419.91045,260.53695 L 415.8792,262.34945 C 414.46152,257.03435 412.24956,252.03 409.41045,247.47445 L 412.97295,244.6932 L 413.0042,244.6932 L 414.72295,230.9432 L 417.4417,228.8182 z M 304.66045,232.78695 L 306.8167,233.97445 L 310.7542,247.28695 L 314.7542,249.4432 C 312.22446,253.90483 310.2763,258.75629 309.0667,263.8807 L 303.84795,263.8807 L 294.03545,273.66195 L 290.03545,273.66195 C 290.63772,258.34194 295.99452,244.24691 304.66045,232.78695 z M 429.16045,247.1932 C 433.13664,256.17299 435.34795,266.11763 435.34795,276.5682 C 435.34795,284.51337 434.05574,292.13592 431.6917,299.28695 L 428.5042,298.7557 L 420.4417,287.47445 L 416.7542,286.84945 C 417.38325,283.51796 417.72295,280.08214 417.72295,276.5682 C 417.72295,272.12969 417.18371,267.82902 416.1917,263.6932 L 420.97295,261.5682 L 421.0042,261.5682 L 425.9417,248.6307 L 429.16045,247.1932 z M 362.66045,248.7557 C 378.00996,248.75571 390.4417,261.2187 390.4417,276.5682 C 390.4417,291.91771 378.00996,304.34945 362.66045,304.34945 C 347.82245,304.34946 335.67247,292.73983 334.8792,278.09945 L 315.8167,278.09945 L 315.8167,275.0057 L 334.8792,275.0057 C 335.68814,260.3781 347.83306,248.7557 362.66045,248.7557 z M 304.41045,265.22445 L 308.78545,265.22445 C 308.01764,268.88812 307.59795,272.67756 307.59795,276.5682 C 307.59795,280.55368 308.01252,284.44747 308.8167,288.1932 L 302.6292,291.84945 L 299.1917,305.28695 L 296.59795,306.8182 C 292.35838,297.60186 289.97295,287.37534 289.97295,276.5682 C 289.97295,276.05624 289.99365,275.54639 290.0042,275.03695 L 294.59795,275.03695 L 294.6292,275.03695 L 304.41045,265.22445 z M 416.47295,288.1932 L 419.66045,288.72445 L 427.6917,300.0057 L 427.72295,300.0057 L 431.2542,300.59945 C 430.42425,302.95798 429.46887,305.26223 428.41045,307.5057 L 425.34795,306.6307 L 418.5667,294.53695 L 415.03545,293.53695 C 415.60178,291.78763 416.08176,290.01419 416.47295,288.1932 z "
           id="path25331" />
        <path
           sodipodi:type="arc"
           style="opacity:1;fill:#000000;fill-opacity:1;stroke:none"
           id="path2171"
           sodipodi:cx="123.10542"
           sodipodi:cy="369.73785"
           sodipodi:rx="13.28979"
           sodipodi:ry="13.28979"
           d="M 136.39521 369.73785 A 13.28979 13.28979 0 1 1  109.81563,369.73785 A 13.28979 13.28979 0 1 1  136.39521 369.73785 z"
           transform="matrix(1.750001,0,0,1.750001,147.2214,-370.485)" />
        <text
           xml:space="preserve"
           style="font-size:16px;font-style:normal;font-weight:normal;fill:#000000;fill-opacity:1;stroke:none;stroke-width:1px;stroke-linecap:butt;stroke-linejoin:miter;stroke-opacity:1;font-family:Impact"
           x="328.3822"
           y="247.5285"
           id="text2188"><tspan
             sodipodi:role="line"
             id="tspan2190"
             x="328.3822"
             y="247.5285"
             style="font-size:16px">INTER GATE</tspan></text>
        <text
           xml:space="preserve"
           style="font-size:17.93791008px;font-style:normal;font-weight:normal;fill:#deebf2;fill-opacity:1;stroke:none;stroke-width:1px;stroke-linecap:butt;stroke-linejoin:miter;stroke-opacity:1;font-family:Arial"
           x="301.53421"
           y="318.535"
           id="text2195"
           transform="scale(1.1261506,0.8879807)"><tspan
             sodipodi:role="line"
             id="tspan2197"
             x="301.53421"
             y="318.535"
             style="font-weight:bold;fill:#deebf2;fill-opacity:1;font-family:Impact">GATE1</tspan></text>
        <text
           xml:space="preserve"
           style="font-size:9.04009628px;font-style:normal;font-weight:normal;fill:#000000;fill-opacity:1;stroke:none;stroke-width:1px;stroke-linecap:butt;stroke-linejoin:miter;stroke-opacity:1;font-family:Impact"
           x="309.81848"
           y="269.53522"
           id="text5775"><tspan
             sodipodi:role="line"
             id="tspan5777"
             x="309.81848"
             y="269.53522"
             style="font-size:3.01336527px;font-weight:bold;font-family:Arial">LEVEL-11</tspan><tspan
             sodipodi:role="line"
             x="309.81848"
             y="273.30192"
             id="tspan5779"
             style="font-size:3.01336527px;font-weight:bold;font-family:Arial">VIRUS BUSTER</tspan></text>
        <rect
           y="307.06055"
           x="347.43713"
           height="31.693825"
           width="4.7282147"
           id="rect2497"
           style="fill:#ffff00;fill-opacity:1;stroke:none" />
        <rect
           style="fill:#ffff00;fill-opacity:1;stroke:none"
           id="rect2499"
           width="4.3426852"
           height="31.436804"
           x="373.16428"
           y="307.06055" />
        <path
           style="fill:#000000;fill-opacity:1;stroke:none"
           d="M 347.30352,306.94168 L 347.30352,339.13175 L 378.01738,339.13175 L 378.01738,306.94168 L 347.30352,306.94168 z M 348.04114,307.57389 L 351.90617,307.57389 L 351.90617,309.60223 L 348.04114,307.57389 z M 352.52577,307.57389 L 372.79513,307.57389 L 372.79513,338.44685 L 352.52577,338.44685 L 352.52577,307.57389 z M 373.47373,307.57389 L 377.36829,307.57389 L 377.36829,309.60223 L 373.47373,307.57389 z M 354.59106,308.17976 C 354.34154,308.17976 354.13504,308.19986 353.94197,308.25879 C 353.75073,308.31645 353.57919,308.39434 353.4699,308.49586 C 353.36244,308.59741 353.31474,308.728 353.29288,308.83831 C 353.27102,308.94737 353.26337,309.09311 353.26337,309.31247 L 353.26337,310.2081 C 353.26337,310.50644 353.28086,310.71749 353.35189,310.86666 C 353.42292,311.01457 353.57588,311.15146 353.79444,311.23545 C 354.01302,311.31943 354.28362,311.34082 354.62056,311.34081 C 354.94476,311.34081 355.22629,311.30813 355.44667,311.2091 C 355.66889,311.11007 355.79599,310.99827 355.85973,310.86666 C 355.92531,310.73504 355.97775,310.4964 355.97775,310.18176 L 355.97775,310.07639 L 354.8271,310.07639 L 354.8271,310.44518 C 354.8271,310.6119 354.79541,310.71616 354.76809,310.76129 C 354.74259,310.80642 354.70617,310.84031 354.62056,310.84031 C 354.53132,310.84031 354.46904,310.8064 354.44353,310.76129 C 354.41804,310.71616 354.41404,310.61945 354.41404,310.47152 L 354.41404,309.07539 C 354.41404,308.92121 354.41804,308.80567 354.44353,308.75929 C 354.46904,308.71291 354.52585,308.70659 354.62056,308.7066 C 354.70435,308.7066 354.74441,308.72042 354.76809,308.75929 C 354.79359,308.7969 354.8271,308.89486 354.8271,309.04905 L 354.8271,309.57589 L 355.97775,309.57589 L 355.97775,309.28613 C 355.97775,309.00158 355.92896,308.78804 355.85973,308.65392 C 355.79053,308.51854 355.63756,308.40172 355.41718,308.31147 C 355.19679,308.22122 354.92984,308.17977 354.59106,308.17976 z M 367.77942,308.17976 C 367.5299,308.17976 367.31794,308.20237 367.13033,308.25879 C 366.94274,308.3152 366.76938,308.39058 366.65826,308.49586 C 366.54899,308.60117 366.5031,308.73679 366.48124,308.86465 C 366.46121,308.99127 366.45174,309.19099 366.45174,309.49687 L 366.45174,310.02371 C 366.45174,310.33709 366.45939,310.55692 366.48124,310.68226 C 366.5031,310.80762 366.57303,310.91815 366.68777,311.02471 C 366.80252,311.13126 366.94274,311.2079 367.13033,311.26179 C 367.31976,311.31444 367.54265,311.34082 367.77942,311.34081 C 368.02895,311.34081 368.24092,311.3182 368.42851,311.26179 C 368.61612,311.20538 368.7618,311.13001 368.87108,311.02471 C 368.98219,310.91942 369.05758,310.80887 369.0776,310.68226 C 369.09947,310.5544 369.10712,310.32957 369.10712,310.02371 L 369.10712,309.49687 C 369.10712,309.18349 369.09947,308.96367 369.0776,308.83831 C 369.05576,308.71297 368.98583,308.60242 368.87108,308.49586 C 368.75633,308.38932 368.58844,308.31144 368.39902,308.25879 C 368.21142,308.20489 368.01621,308.17977 367.77942,308.17976 z M 356.71536,308.23244 L 356.12528,311.28813 L 357.30545,311.28813 L 357.39395,310.73494 L 357.80701,310.73494 L 357.86602,311.28813 L 359.04618,311.28813 L 358.3676,308.23244 L 356.71536,308.23244 z M 359.22321,308.23244 L 359.22321,310.05005 C 359.22321,310.39352 359.23451,310.62715 359.25272,310.73494 C 359.27093,310.84149 359.32957,310.9282 359.42975,311.02471 C 359.52992,311.12123 359.67014,311.20162 359.8723,311.26179 C 360.07448,311.32196 360.3163,311.34082 360.5804,311.34081 C 360.81901,311.34081 361.02514,311.33826 361.2,311.28813 C 361.37667,311.23673 361.5056,311.14882 361.61306,311.05105 C 361.72052,310.95202 361.79773,310.85406 361.81958,310.76129 C 361.84144,310.66727 361.84909,310.51777 361.84909,310.28713 L 361.84909,308.23244 L 360.69842,308.23244 L 360.69842,310.49787 C 360.69842,310.64955 360.69078,310.74627 360.66892,310.78763 C 360.64889,310.82774 360.59426,310.84031 360.52139,310.84031 C 360.45765,310.84031 360.42524,310.82399 360.40338,310.78763 C 360.38335,310.75003 360.37388,310.65707 360.37388,310.52421 L 360.37388,308.23244 L 359.22321,308.23244 z M 362.08512,308.23244 L 362.08512,308.86465 L 362.76371,308.86465 L 362.76371,311.28813 L 363.91438,311.28813 L 363.91438,308.86465 L 364.59297,308.86465 L 364.59297,308.23244 L 362.08512,308.23244 z M 364.85852,308.23244 L 364.85852,311.28813 L 366.00917,311.28813 L 366.00917,308.23244 L 364.85852,308.23244 z M 369.52018,308.23244 L 369.52018,311.28813 L 370.4938,311.28813 L 370.4938,309.892 L 371.08389,311.28813 L 372.11654,311.28813 L 372.11654,308.23244 L 371.1429,308.23244 L 371.1429,309.60223 L 370.4938,308.23244 L 369.52018,308.23244 z M 367.77942,308.7066 C 367.85047,308.7066 367.90509,308.71917 367.92695,308.75929 C 367.95063,308.79815 367.95644,308.88106 367.95644,309.02271 L 367.95644,310.41884 C 367.95644,310.59809 367.94881,310.71367 367.92695,310.76129 C 367.90509,310.80892 367.85775,310.84031 367.77942,310.84031 C 367.70294,310.84031 367.65376,310.82899 367.63191,310.78763 C 367.61187,310.74627 367.60239,310.62192 367.60239,310.44518 L 367.60239,309.02271 C 367.60239,308.86602 367.60094,308.76428 367.63191,308.73294 C 367.66469,308.70036 367.71933,308.70659 367.77942,308.7066 z M 357.60049,308.91734 C 357.65877,309.42376 357.71923,309.86338 357.77751,310.2081 L 357.36446,310.2081 C 357.3936,309.9386 357.48393,309.49897 357.60049,308.91734 z M 347.95261,309.73394 L 351.90617,311.84131 L 351.90617,313.86966 L 347.95261,311.78863 L 347.95261,309.73394 z M 373.44422,309.76029 L 377.36829,311.84131 L 377.36829,313.86966 L 373.44422,311.81497 L 373.44422,309.76029 z M 347.95261,314.00137 L 351.90617,316.08239 L 351.90617,318.13708 L 347.95261,316.02971 L 347.95261,314.00137 z M 353.85345,314.02771 L 353.85345,326.88266 L 371.46745,326.88266 L 371.46745,314.02771 L 353.85345,314.02771 z M 373.44422,314.02771 L 377.36829,316.08239 L 377.36829,318.13708 L 373.44422,316.05605 L 373.44422,314.02771 z M 354.50254,314.65992 L 370.81836,314.65992 L 370.81836,326.25045 L 354.50254,326.25045 L 354.50254,314.65992 z M 347.95261,318.26879 L 351.90617,320.34982 L 351.90617,322.37816 L 347.95261,320.29713 L 347.95261,318.26879 z M 373.44422,318.29513 L 377.36829,320.34982 L 377.36829,322.37816 L 373.44422,320.32348 L 373.44422,318.29513 z M 347.95261,322.53621 L 351.90617,324.61724 L 351.90617,326.64558 L 347.95261,324.56456 L 347.95261,322.53621 z M 373.44422,322.56256 L 377.36829,324.61724 L 377.36829,326.64558 L 373.44422,324.5909 L 373.44422,322.56256 z M 347.95261,326.80364 L 351.90617,328.88466 L 351.90617,330.91301 L 347.95261,328.83198 L 347.95261,326.80364 z M 373.44422,326.82998 L 377.36829,328.88466 L 377.36829,330.91301 L 373.44422,328.85832 L 373.44422,326.82998 z M 353.85345,327.54122 L 353.85345,337.18243 L 371.46745,337.18243 L 371.46745,327.54122 L 353.85345,327.54122 z M 347.95261,331.07106 L 351.90617,333.15209 L 351.90617,335.18043 L 347.95261,333.0994 L 347.95261,331.07106 z M 373.44422,331.0974 L 377.36829,333.15209 L 377.36829,335.18043 L 373.44422,333.12574 L 373.44422,331.0974 z M 347.95261,335.33848 L 351.90617,337.41951 L 351.90617,338.44685 L 349.98841,338.44685 L 347.95261,337.36682 L 347.95261,335.33848 z M 373.44422,335.36482 L 377.36829,337.41951 L 377.36829,338.44685 L 375.45051,338.44685 L 373.44422,337.39317 L 373.44422,335.36482 z "
           id="path2501" />
        <text
           xml:space="preserve"
           style="font-size:0.35655525px;font-style:normal;font-variant:normal;font-weight:normal;font-stretch:normal;text-align:start;line-height:125%;writing-mode:lr-tb;text-anchor:start;fill:#000000;fill-opacity:1;stroke:none;stroke-width:1px;stroke-linecap:butt;stroke-linejoin:miter;stroke-opacity:1;font-family:Monospace"
           x="453.19189"
           y="246.55113"
           id="text11143"
           transform="scale(0.7823949,1.2781269)"
           sodipodi:linespacing="125%"><tspan
             sodipodi:role="line"
             id="tspan11223"
             x="453.19189"
             y="246.55113">traceroute to www.iij.ad.jp (2001:240:bb42:b000::1:80), 30 hops max, 40 byte packets</tspan><tspan
             sodipodi:role="line"
             x="453.19189"
             y="246.99683"
             id="tspan21835"> 1  eileen.bbg.blazing.de (2a01:30:1000::1)  1.009 ms  1.086 ms  0.99 ms</tspan><tspan
             sodipodi:role="line"
             x="453.19189"
             y="247.44252"
             id="tspan21837"> 2  ber-e0-8-bbg.ipv6-network.de (2a01:30:1e0f:1::a)  41.726 ms  35.717 ms  34.838 ms</tspan><tspan
             sodipodi:role="line"
             x="453.19189"
             y="247.88821"
             id="tspan21839"> 3  2001:7f8:19:1::11ed:1 (2001:7f8:19:1::11ed:1)  45.947 ms  49.616 ms  48.451 ms</tspan><tspan
             sodipodi:role="line"
             x="453.19189"
             y="248.33391"
             id="tspan21841"> 4  ge1-3-0-30.br0.ctber.de.easynet.net (2001:6f8:800:1601::1:181)  50.976 ms  47.662 ms  55.947 ms</tspan><tspan
             sodipodi:role="line"
             x="453.19189"
             y="248.7796"
             id="tspan21843"> 5  so0-2-1-0.br0.weham.de.easynet.net (2001:6f8:800:0:1:181:1:2)  67.56 ms  61.339 ms  </tspan><tspan
             sodipodi:role="line"
             x="453.19189"
             y="249.2253"
             id="tspan22646">        80.557 ms</tspan><tspan
             sodipodi:role="line"
             x="453.19189"
             y="249.67099"
             id="tspan21845"> 6  2001:6f8:0:211::1 (2001:6f8:0:211::1)  75.178 ms  41.726 ms  42.941 ms</tspan><tspan
             sodipodi:role="line"
             x="453.19189"
             y="250.11668"
             id="tspan21847"> 7  2001:6f8::57:20:1 (2001:6f8::57:20:1)  50.33 ms  54.562 ms  68.189 ms</tspan><tspan
             sodipodi:role="line"
             x="453.19189"
             y="250.56238"
             id="tspan21849"> 8  2001:6f8::51:20:1 (2001:6f8::51:20:1)  61.072 ms  130.96 ms  59.068 ms</tspan><tspan
             sodipodi:role="line"
             x="453.19189"
             y="251.00807"
             id="tspan21851"> 9  so0-1-0-0.gr0.bbpar.fr.easynet.net (2001:6f8::51:11:2)  58.199 ms  60.469 ms  57.824 ms</tspan><tspan
             sodipodi:role="line"
             x="453.19189"
             y="251.45377"
             id="tspan21853">10  2001:6f8::65:120:1 (2001:6f8::65:120:1)  310.051 ms  193.059 ms  66.478 ms</tspan><tspan
             sodipodi:role="line"
             x="453.19189"
             y="251.89946"
             id="tspan21855">11  2001:6f8::25:20:1 (2001:6f8::25:20:1)  151.889 ms  146.216 ms  147.519 ms</tspan><tspan
             sodipodi:role="line"
             x="453.19189"
             y="252.34516"
             id="tspan21857">12  2001:458:26:2::200 (2001:458:26:2::200)  118.909 ms  118.34 ms  116.789 ms</tspan><tspan
             sodipodi:role="line"
             x="453.19189"
             y="252.79085"
             id="tspan21859">13  2001:48b0:bb00:f00c::25 (2001:48b0:bb00:f00c::25)  289.809 ms  290.298 ms  303.803 ms</tspan><tspan
             sodipodi:role="line"
             x="453.19189"
             y="253.23654"
             id="tspan21861">14  tky008bb01.IIJ.Net (2001:240:bb02:3::24)  289.744 ms  292.486 ms  289.942 ms</tspan><tspan
             sodipodi:role="line"
             x="453.19189"
             y="253.68224"
             id="tspan21863">15  2001:240:bb02:b::29 (2001:240:bb02:b::29)  288.313 ms  312.147 ms  287.559 ms</tspan><tspan
             sodipodi:role="line"
             x="453.19189"
             y="254.12793"
             id="tspan21865">16  2001:240:bb42:b000::1:80 (2001:240:bb42:b000::1:80)  292.312 ms  289.138 ms  290.936 ms</tspan><tspan
             sodipodi:role="line"
             x="453.19189"
             y="254.57363"
             id="tspan21869">traceroute to soumgw.soum.co.jp (2001:240:10e::1), 30 hops max, 40 byte packets</tspan><tspan
             sodipodi:role="line"
             x="453.19189"
             y="255.01932"
             id="tspan21899"> 1  eileen.bbg.blazing.de (2a01:30:1000::1)  1.952 ms  2.884 ms  2.24 ms</tspan></text>
        <text
           xml:space="preserve"
           style="font-size:3.62011814px;font-style:normal;font-weight:normal;fill:#deebf2;fill-opacity:1;stroke:none;stroke-width:1px;stroke-linecap:butt;stroke-linejoin:miter;stroke-opacity:1;font-family:Arial"
           x="347.83188"
           y="282.12646"
           id="text7773"
           transform="scale(0.9846772,1.0155612)"><tspan
             sodipodi:role="line"
             id="tspan7775"
             x="347.83188"
             y="282.12646"
             style="font-size:3.62011814px;fill:#deebf2;fill-opacity:1;font-family:Impact">MEGA GAIZ NEURO COMPUTER</tspan></text>
        <text
           xml:space="preserve"
           style="font-size:0.33722949px;font-style:normal;font-weight:normal;fill:#deebf2;fill-opacity:1;stroke:none;stroke-width:1px;stroke-linecap:butt;stroke-linejoin:miter;stroke-opacity:1;font-family:Monospace"
           x="334.95901"
           y="347.26877"
           id="text7777"
           transform="scale(1.0583183,0.9448953)"><tspan
             sodipodi:role="line"
             x="334.95901"
             y="347.26877"
             id="tspan7825">Section &quot;Files&quot;</tspan><tspan
             sodipodi:role="line"
             x="334.95901"
             y="347.69031"
             id="tspan7843">        FontPath        &quot;/usr/share/X11/fonts/misc&quot;</tspan><tspan
             sodipodi:role="line"
             x="334.95901"
             y="348.11184"
             id="tspan7845">        FontPath        &quot;/usr/share/X11/fonts/cyrillic&quot;</tspan><tspan
             sodipodi:role="line"
             x="334.95901"
             y="348.53338"
             id="tspan7847">        FontPath        &quot;/usr/share/X11/fonts/100dpi/:unscaled&quot;</tspan><tspan
             sodipodi:role="line"
             x="334.95901"
             y="348.95492"
             id="tspan7849">        FontPath        &quot;/usr/share/X11/fonts/75dpi/:unscaled&quot;</tspan><tspan
             sodipodi:role="line"
             x="334.95901"
             y="349.37645"
             id="tspan7851">        FontPath        &quot;/usr/share/X11/fonts/Type1&quot;</tspan><tspan
             sodipodi:role="line"
             x="334.95901"
             y="349.79799"
             id="tspan7853">        FontPath        &quot;/usr/share/X11/fonts/100dpi&quot;</tspan><tspan
             sodipodi:role="line"
             x="334.95901"
             y="350.21953"
             id="tspan7855">        FontPath        &quot;/usr/share/X11/fonts/75dpi&quot;</tspan><tspan
             sodipodi:role="line"
             x="334.95901"
             y="350.64106"
             id="tspan7857">        FontPath        &quot;/usr/share/fonts/X11/misc&quot;</tspan><tspan
             sodipodi:role="line"
             x="334.95901"
             y="351.0626"
             id="tspan7859">        # path to defoma fonts</tspan><tspan
             sodipodi:role="line"
             x="334.95901"
             y="351.48414"
             id="tspan7861">        FontPath        &quot;/var/lib/defoma/x-ttcidfont-conf.d/dirs/TrueType&quot;</tspan><tspan
             sodipodi:role="line"
             x="334.95901"
             y="351.90567"
             id="tspan7863">EndSection</tspan><tspan
             sodipodi:role="line"
             x="334.95901"
             y="352.32721"
             id="tspan7865" /><tspan
             sodipodi:role="line"
             x="334.95901"
             y="352.74875"
             id="tspan7827">processor       : 14</tspan><tspan
             sodipodi:role="line"
             x="334.95901"
             y="353.17028"
             id="tspan22591">vendor_id       : Hosaka</tspan><tspan
             sodipodi:role="line"
             x="334.95901"
             y="353.59182"
             id="tspan22593">cpu family      : 215</tspan><tspan
             sodipodi:role="line"
             x="334.95901"
             y="354.01336"
             id="tspan22595">model           : 247</tspan><tspan
             sodipodi:role="line"
             x="334.95901"
             y="354.43489"
             id="tspan22597">model name      : Hosaka 3245X</tspan><tspan
             sodipodi:role="line"
             x="334.95901"
             y="354.85643"
             id="tspan22599">stepping        : 2</tspan><tspan
             sodipodi:role="line"
             x="334.95901"
             y="355.27797"
             id="tspan22601">cpu MHz         : 21809.387</tspan><tspan
             sodipodi:role="line"
             x="334.95901"
             y="355.69951"
             id="tspan22603">cache size      : 512 GB</tspan><tspan
             sodipodi:role="line"
             x="334.95901"
             y="356.12104"
             id="tspan22619">wp              : yes</tspan><tspan
             sodipodi:role="line"
             x="334.95901"
             y="356.54258"
             id="tspan22623">bogomips        : 23622.57</tspan><tspan
             sodipodi:role="line"
             x="334.95901"
             y="356.96412"
             id="tspan22625" /></text>
        <rect
           y="350.65756"
           x="343.67307"
           height="6.46913"
           width="37.965912"
           id="rect15772"
           style="opacity:1;fill:#deebf2;fill-opacity:1;stroke:#003e6b;stroke-width:0.78015155;stroke-miterlimit:4;stroke-dasharray:none;stroke-opacity:1" />
        <rect
           style="opacity:1;fill:#deebf2;fill-opacity:1;stroke:#003e6b;stroke-width:0.78015155;stroke-miterlimit:4;stroke-dasharray:none;stroke-opacity:1"
           id="rect15778"
           width="37.965912"
           height="6.46913"
           x="343.67307"
           y="359.34113" />
        <rect
           y="368.09232"
           x="343.67307"
           height="6.46913"
           width="37.965912"
           id="rect15784"
           style="opacity:1;fill:#deebf2;fill-opacity:1;stroke:#003e6b;stroke-width:0.78015155;stroke-miterlimit:4;stroke-dasharray:none;stroke-opacity:1" />
        <text
           xml:space="preserve"
           style="font-size:4.10374117px;font-style:normal;font-weight:normal;fill:#b66cc7;fill-opacity:1;stroke:none;stroke-width:1px;stroke-linecap:butt;stroke-linejoin:miter;stroke-opacity:1;font-family:Impact"
           x="343.71506"
           y="348.29651"
           id="text17605"
           transform="scale(1.0044092,0.9956102)"><tspan
             sodipodi:role="line"
             id="tspan17607"
             x="343.71506"
             y="348.29651"
             style="font-style:normal;font-weight:bold;font-family:Monospace">SYSTEM LEVEL 1</tspan></text>
        <path
           style="fill:#000000;fill-opacity:1;stroke-width:1;stroke-miterlimit:4;stroke-opacity:1"
           d="M 347.39039,185.8628 L 347.39039,195.58155 L 371.39039,195.58155 L 371.89039,195.58155 L 372.54664,195.58155 L 374.32789,192.45655 L 377.92164,192.45655 L 377.92164,189.01905 L 373.39986,189.01905 L 371.89039,185.9253 L 371.89039,185.8628 L 371.85914,185.8628 L 370.67164,185.8628 L 347.39039,185.8628 z "
           id="path21284"
           sodipodi:nodetypes="cccccccccccccc" />
        <rect
           style="opacity:1;fill:#000000;fill-opacity:1;stroke:#000000;stroke-width:0.78015161;stroke-miterlimit:4;stroke-dasharray:none;stroke-opacity:1"
           id="rect21423"
           width="20.570362"
           height="15.142095"
           x="265.84018"
           y="268.98557" />
        <text
           xml:space="preserve"
           style="font-size:0.34379691px;font-style:normal;font-weight:normal;fill:#deebf2;fill-opacity:1;stroke:none;stroke-width:1px;stroke-linecap:butt;stroke-linejoin:miter;stroke-opacity:1;font-family:Monospace"
           x="265.67493"
           y="268.94934"
           id="text21427"><tspan
             sodipodi:role="line"
             id="tspan21429"
             x="265.67493"
             y="268.94934">-rwxr-xr-x  1 root root  17K 2032-09-18 18:50 pwd</tspan><tspan
             sodipodi:role="line"
             x="265.67493"
             y="269.37909"
             id="tspan21431">lrwxrwxrwx  1 root root    4 2032-11-30 04:08 rbash -&gt; bash</tspan><tspan
             sodipodi:role="line"
             x="265.67493"
             y="269.80883"
             id="tspan21433">-rwxr-xr-x  1 root root  18K 2032-09-18 18:50 readlink</tspan><tspan
             sodipodi:role="line"
             x="265.67493"
             y="270.23858"
             id="tspan21435">-rwxr-xr-x  1 root root  34K 2032-09-18 18:50 rm</tspan><tspan
             sodipodi:role="line"
             x="265.67493"
             y="270.66833"
             id="tspan21437">-rwxr-xr-x  1 root root  14K 2032-09-18 18:50 rmdir</tspan><tspan
             sodipodi:role="line"
             x="265.67493"
             y="271.09807"
             id="tspan21439">lrwxrwxrwx  1 root root    4 2032-11-30 04:08 rnano -&gt; nano</tspan><tspan
             sodipodi:role="line"
             x="265.67493"
             y="271.52782"
             id="tspan21441">-rwxr-xr-x  1 root root  11K 2032-07-03 08:01 run-parts</tspan><tspan
             sodipodi:role="line"
             x="265.67493"
             y="271.95756"
             id="tspan21443">-rwxr-xr-x  1 root root  39K 2032-06-16 07:25 sed</tspan><tspan
             sodipodi:role="line"
             x="265.67493"
             y="272.38731"
             id="tspan21445">lrwxrwxrwx  1 root root   15 2032-11-30 04:08 setpci -&gt; /usr/bin/setpci</tspan><tspan
             sodipodi:role="line"
             x="265.67493"
             y="272.81706"
             id="tspan21447">-rwxr-xr-x  1 root root 7.6K 2032-10-21 06:52 setupcon</tspan><tspan
             sodipodi:role="line"
             x="265.67493"
             y="273.2468"
             id="tspan21449">lrwxrwxrwx  1 root root    4 2032-11-30 04:08 sh -&gt; dash</tspan><tspan
             sodipodi:role="line"
             x="265.67493"
             y="273.67655"
             id="tspan21451">lrwxrwxrwx  1 root root    4 2032-11-30 04:08 sh.distrib -&gt; bash</tspan><tspan
             sodipodi:role="line"
             x="265.67493"
             y="274.10629"
             id="tspan21453">-rwxr-xr-x  1 root root  14K 2032-09-18 18:50 sleep</tspan><tspan
             sodipodi:role="line"
             x="265.67493"
             y="274.53604"
             id="tspan21455">-rwxr-xr-x  1 root root  36K 2032-09-18 18:50 stty</tspan><tspan
             sodipodi:role="line"
             x="265.67493"
             y="274.96579"
             id="tspan21457">-rwsr-xr-x  1 root root  27K 2032-10-20 08:52 su</tspan><tspan
             sodipodi:role="line"
             x="265.67493"
             y="275.39553"
             id="tspan21459">-rwxr-xr-x  1 root root  12K 2032-09-18 18:50 sync</tspan><tspan
             sodipodi:role="line"
             x="265.67493"
             y="275.82528"
             id="tspan21461">-rwxr-xr-x  1 root root 335K 2032-11-28 07:03 tar</tspan><tspan
             sodipodi:role="line"
             x="265.67493"
             y="276.25503"
             id="tspan21463">-rwxr-xr-x  1 root root 5.5K 2032-07-03 08:01 tempfile </tspan><tspan
             sodipodi:role="line"
             x="265.67493"
             y="276.68477"
             id="tspan21465">-rwxr-xr-x  1 root root  33K 2032-09-18 18:50 touch</tspan><tspan
             sodipodi:role="line"
             x="265.67493"
             y="277.11452"
             id="tspan21467">-rwxr-xr-x  1 root root  12K 2032-09-18 18:50 true</tspan><tspan
             sodipodi:role="line"
             x="265.67493"
             y="277.54426"
             id="tspan21469">-rwsr-xr-x  1 root root  75K 2032-10-13 01:47 umount</tspan><tspan
             sodipodi:role="line"
             x="265.67493"
             y="277.97401"
             id="tspan21471">-rwxr-xr-x  1 root root  14K 2032-09-18 18:50 uname</tspan><tspan
             sodipodi:role="line"
             x="265.67493"
             y="278.40376"
             id="tspan21473">-rwxr-xr-x  1 root root  52K 2032-09-20 02:00 uncompress</tspan><tspan
             sodipodi:role="line"
             x="265.67493"
             y="278.8335"
             id="tspan21475">-rwxr-xr-x  1 root root  77K 2032-09-18 18:50 vdir</tspan><tspan
             sodipodi:role="line"
             x="265.67493"
             y="279.26325"
             id="tspan21477">-rwxr-xr-x  1 root root  884 2032-07-03 08:01 which</tspan><tspan
             sodipodi:role="line"
             x="265.67493"
             y="279.69299"
             id="tspan21479">-rwxr-xr-x  1 root root  13K 2032-08-12 03:06 wpa_passphrase</tspan><tspan
             sodipodi:role="line"
             x="265.67493"
             y="280.12274"
             id="tspan21481">-rwxr-xr-x  1 root root  13K 2032-10-12 10:33 xbrlapi</tspan><tspan
             sodipodi:role="line"
             x="265.67493"
             y="280.55249"
             id="tspan21483">-rwxr-xr-x  1 root root  52K 2032-09-20 02:00 zcat</tspan><tspan
             sodipodi:role="line"
             x="265.67493"
             y="280.98223"
             id="tspan21485">-rwxr-xr-x  1 root root 2.0K 2032-09-20 02:00 zcmp</tspan><tspan
             sodipodi:role="line"
             x="265.67493"
             y="281.41198"
             id="tspan21487">-rwxr-xr-x  1 root root 2.0K 2032-09-20 02:00 zdiff</tspan><tspan
             sodipodi:role="line"
             x="265.67493"
             y="281.84172"
             id="tspan21489">-rwxr-xr-x  1 root root 3.5K 2032-09-20 02:00 zegrep</tspan><tspan
             sodipodi:role="line"
             x="265.67493"
             y="282.27147"
             id="tspan21491">-rwxr-xr-x  1 root root 3.5K 2032-09-20 02:00 zfgrep </tspan><tspan
             sodipodi:role="line"
             x="265.67493"
             y="282.70122"
             id="tspan21493">-rwxr-xr-x  1 root root 1.5K 2032-09-20 02:00 zforce</tspan><tspan
             sodipodi:role="line"
             x="265.67493"
             y="283.13096"
             id="tspan21495">-rwxr-xr-x  1 root root 3.5K 2032-09-20 02:00 zgrep </tspan><tspan
             sodipodi:role="line"
             x="265.67493"
             y="283.56071"
             id="tspan21497">-rwxr-xr-x  1 root root  103 2032-09-20 02:00 zless</tspan><tspan
             sodipodi:role="line"
             x="265.67493"
             y="283.99046"
             id="tspan21499">-rwxr-xr-x  1 root root 1.9K 2032-09-20 02:00 zmore</tspan><tspan
             sodipodi:role="line"
             x="265.67493"
             y="284.4202"
             id="tspan21501">-rwxr-xr-x  1 root root 3.5K 2032-09-20 02:00 znew</tspan><tspan
             sodipodi:role="line"
             x="265.67493"
             y="284.84995"
             id="tspan21503" /></text>
        <path
           style="font-size:12.65106678px;font-style:normal;font-weight:normal;fill:#000000;fill-opacity:1;stroke:none;stroke-width:1px;stroke-linecap:butt;stroke-linejoin:miter;stroke-opacity:1;font-family:Code 39 JK"
           d="M 437.08855,271.75641 L 436.68843,271.75641 L 436.68843,281.35641 L 437.08855,281.35641 L 437.08855,271.75641 M 437.88879,271.75641 L 437.48867,271.75641 L 437.48867,281.35641 L 437.88879,281.35641 L 437.88879,271.75641 M 438.68905,271.75641 L 438.28891,271.75641 L 438.28891,281.35641 L 438.68905,281.35641 L 438.68905,271.75641 M 440.28953,271.75641 L 439.48929,271.75641 L 439.48929,281.35641 L 440.28953,281.35641 L 440.28953,271.75641 M 441.48991,271.75641 L 440.68967,271.75641 L 440.68967,281.35641 L 441.48991,281.35641 L 441.48991,271.75641 M 442.69861,271.75641 L 441.89837,271.75641 L 441.89837,281.35641 L 442.69861,281.35641 L 442.69861,271.75641 M 443.49887,271.75641 L 443.09874,271.75641 L 443.09874,281.35641 L 443.49887,281.35641 L 443.49887,271.75641 M 444.29911,271.75641 L 443.89899,271.75641 L 443.89899,281.35641 L 444.29911,281.35641 L 444.29911,271.75641 M 445.49949,271.75641 L 445.09936,271.75641 L 445.09936,281.35641 L 445.49949,281.35641 L 445.49949,271.75641 M 446.69985,271.75641 L 445.89961,271.75641 L 445.89961,281.35641 L 446.69985,281.35641 L 446.69985,271.75641 M 447.50844,271.75641 L 447.10831,271.75641 L 447.10831,281.35641 L 447.50844,281.35641 L 447.50844,271.75641 M 448.30869,271.75641 L 447.90857,271.75641 L 447.90857,281.35641 L 448.30869,281.35641 L 448.30869,271.75641 M 449.50906,271.75641 L 448.70881,271.75641 L 448.70881,281.35641 L 449.50906,281.35641 L 449.50906,271.75641 M 450.70943,271.75641 L 449.90919,271.75641 L 449.90919,281.35641 L 450.70943,281.35641 L 450.70943,271.75641 M 451.90981,271.75641 L 451.50968,271.75641 L 451.50968,281.35641 L 451.90981,281.35641 L 451.90981,271.75641 M 453.11851,271.75641 L 452.31826,271.75641 L 452.31826,281.35641 L 453.11851,281.35641 L 453.11851,271.75641 M 453.91876,271.75641 L 453.51863,271.75641 L 453.51863,281.35641 L 453.91876,281.35641 L 453.91876,271.75641 M 455.11913,271.75641 L 454.31888,271.75641 L 454.31888,281.35641 L 455.11913,281.35641 L 455.11913,271.75641 M 456.3195,271.75641 L 455.91938,271.75641 L 455.91938,281.35641 L 456.3195,281.35641 L 456.3195,271.75641 M 457.11975,271.75641 L 456.71963,271.75641 L 456.71963,281.35641 L 457.11975,281.35641 L 457.11975,271.75641 M 458.32846,271.75641 L 457.52821,271.75641 L 457.52821,281.35641 L 458.32846,281.35641 L 458.32846,271.75641 M 459.12871,271.75641 L 458.72858,271.75641 L 458.72858,281.35641 L 459.12871,281.35641 L 459.12871,271.75641 M 460.32907,271.75641 L 459.92895,271.75641 L 459.92895,281.35641 L 460.32907,281.35641 L 460.32907,271.75641 M 461.12933,271.75641 L 460.7292,271.75641 L 460.7292,281.35641 L 461.12933,281.35641 L 461.12933,271.75641 M 462.32969,271.75641 L 461.52945,271.75641 L 461.52945,281.35641 L 462.32969,281.35641 L 462.32969,271.75641"
           id="text25664" />
        <rect
           style="opacity:1;fill:#003e6b;fill-opacity:1;stroke-width:0.99999917;stroke-miterlimit:4;stroke-dasharray:none;stroke-opacity:1"
           id="rect2938"
           width="35.49725"
           height="4.0809841"
           x="344.90732"
           y="351.85162" />
        <text
           transform="scale(1.0044092,0.9956102)"
           id="text2940"
           y="356.94623"
           x="343.71503"
           style="font-size:4.10374022px;font-style:normal;font-weight:normal;fill:#b66cc7;fill-opacity:1;stroke:none;stroke-width:1px;stroke-linecap:butt;stroke-linejoin:miter;stroke-opacity:1;font-family:Impact"
           xml:space="preserve"><tspan
             style="font-style:normal;font-weight:bold;font-family:Monospace"
             y="356.94623"
             x="343.71503"
             id="tspan2942"
             sodipodi:role="line">SYSTEM LEVEL 2</tspan></text>
        <rect
           y="360.53519"
           x="344.90732"
           height="4.0809841"
           width="35.49725"
           id="rect2944"
           style="opacity:1;fill:#003e6b;fill-opacity:1;stroke-width:0.99999917;stroke-miterlimit:4;stroke-dasharray:none;stroke-opacity:1" />
        <text
           xml:space="preserve"
           style="font-size:4.10373831px;font-style:normal;font-weight:normal;fill:#b66cc7;fill-opacity:1;stroke:none;stroke-width:1px;stroke-linecap:butt;stroke-linejoin:miter;stroke-opacity:1;font-family:Impact"
           x="343.71497"
           y="365.66809"
           id="text2946"
           transform="scale(1.0044092,0.9956102)"><tspan
             sodipodi:role="line"
             id="tspan2948"
             x="343.71497"
             y="365.66809"
             style="font-style:normal;font-weight:bold;font-family:Monospace">SYSTEM LEVEL 3</tspan></text>
        <rect
           style="opacity:1;fill:#003e6b;fill-opacity:1;stroke-width:0.99999917;stroke-miterlimit:4;stroke-dasharray:none;stroke-opacity:1"
           id="rect2958"
           width="35.49725"
           height="4.0809841"
           x="344.90732"
           y="369.28638" />
        <text
           transform="scale(1.0044092,0.9956102)"
           id="text2960"
           y="374.45786"
           x="343.7149"
           style="font-size:4.1037364px;font-style:normal;font-weight:normal;fill:#b66cc7;fill-opacity:1;stroke:none;stroke-width:1px;stroke-linecap:butt;stroke-linejoin:miter;stroke-opacity:1;font-family:Impact"
           xml:space="preserve"><tspan
             style="font-style:normal;font-weight:bold;font-family:Monospace"
             y="374.45786"
             x="343.7149"
             id="tspan2962"
             sodipodi:role="line">SYSTEM LEVEL 4</tspan></text>
        <g
           id="g3895"
           transform="matrix(0.970985,0,0,1,207.63217,-76.861585)">
          <rect
             style="opacity:1;fill:#deebf2;fill-opacity:1;stroke:#003e6b;stroke-width:0.39586118;stroke-miterlimit:4;stroke-dasharray:none;stroke-opacity:1"
             id="rect2964"
             width="23.744831"
             height="4.1828513"
             x="189.90756"
             y="348.70691" />
          <rect
             y="349.47882"
             x="190.67946"
             height="2.6387064"
             width="22.200857"
             id="rect2966"
             style="opacity:1;fill:#003e6b;fill-opacity:1;stroke-width:0.99999917;stroke-miterlimit:4;stroke-dasharray:none;stroke-opacity:1" />
          <text
             xml:space="preserve"
             style="font-size:2.60963726px;font-style:normal;font-weight:normal;fill:#b66cc7;fill-opacity:1;stroke:none;stroke-width:1px;stroke-linecap:butt;stroke-linejoin:miter;stroke-opacity:1;font-family:Impact"
             x="193.23184"
             y="347.48087"
             id="text2968"
             transform="scale(0.987836,1.012313)"><tspan
               sodipodi:role="line"
               id="tspan2970"
               x="193.23184"
               y="347.48087"
               style="font-style:normal;font-weight:bold;font-family:Monospace">SYSTEM LEVEL 2</tspan></text>
        </g>
        <g
           id="g3901"
           transform="matrix(0.970985,0,0,1,207.63217,-76.890882)">
          <rect
             y="354.51056"
             x="189.90756"
             height="4.1828513"
             width="23.744831"
             id="rect3857"
             style="opacity:1;fill:#deebf2;fill-opacity:1;stroke:#003e6b;stroke-width:0.39586118;stroke-miterlimit:4;stroke-dasharray:none;stroke-opacity:1" />
          <rect
             style="opacity:1;fill:#003e6b;fill-opacity:1;stroke-width:0.99999917;stroke-miterlimit:4;stroke-dasharray:none;stroke-opacity:1"
             id="rect3859"
             width="22.200857"
             height="2.6387064"
             x="190.67946"
             y="355.28247" />
          <text
             transform="scale(0.987836,1.012313)"
             id="text3861"
             y="353.21378"
             x="193.23177"
             style="font-size:2.60963631px;font-style:normal;font-weight:normal;fill:#b66cc7;fill-opacity:1;stroke:none;stroke-width:1px;stroke-linecap:butt;stroke-linejoin:miter;stroke-opacity:1;font-family:Impact"
             xml:space="preserve"><tspan
               style="font-style:normal;font-weight:bold;font-family:Monospace"
               y="353.21378"
               x="193.23177"
               id="tspan3863"
               sodipodi:role="line">SYSTEM LEVEL 3</tspan></text>
        </g>
        <g
           id="g3907"
           transform="matrix(0.970985,0,0,1,207.63217,-76.744317)">
          <rect
             style="opacity:1;fill:#deebf2;fill-opacity:1;stroke:#003e6b;stroke-width:0.39586118;stroke-miterlimit:4;stroke-dasharray:none;stroke-opacity:1"
             id="rect3865"
             width="23.744831"
             height="4.1828513"
             x="189.90756"
             y="360.13834" />
          <rect
             y="360.91025"
             x="190.67946"
             height="2.6387064"
             width="22.200857"
             id="rect3867"
             style="opacity:1;fill:#003e6b;fill-opacity:1;stroke-width:0.99999917;stroke-miterlimit:4;stroke-dasharray:none;stroke-opacity:1" />
          <text
             xml:space="preserve"
             style="font-size:2.6096344px;font-style:normal;font-weight:normal;fill:#b66cc7;fill-opacity:1;stroke:none;stroke-width:1px;stroke-linecap:butt;stroke-linejoin:miter;stroke-opacity:1;font-family:Impact"
             x="193.23161"
             y="358.7728"
             id="text3869"
             transform="scale(0.987836,1.012313)"><tspan
               sodipodi:role="line"
               id="tspan3871"
               x="193.23161"
               y="358.7728"
               style="font-style:normal;font-weight:bold;font-family:Monospace">SYSTEM LEVEL 4</tspan></text>
        </g>
        <g
           id="g3889"
           transform="matrix(0.970985,0,0,1,207.63218,-76.744368)">
          <rect
             y="342.81534"
             x="189.90756"
             height="4.1828513"
             width="23.744831"
             id="rect3881"
             style="opacity:1;fill:#deebf2;fill-opacity:1;stroke:#003e6b;stroke-width:0.39586118;stroke-miterlimit:4;stroke-dasharray:none;stroke-opacity:1" />
          <rect
             style="opacity:1;fill:#003e6b;fill-opacity:1;stroke-width:0.99999917;stroke-miterlimit:4;stroke-dasharray:none;stroke-opacity:1"
             id="rect3883"
             width="22.200857"
             height="2.6387064"
             x="190.67946"
             y="343.58725" />
          <text
             transform="scale(0.987836,1.012313)"
             id="text3885"
             y="341.66083"
             x="193.23177"
             style="font-size:2.60963631px;font-style:normal;font-weight:normal;fill:#b66cc7;fill-opacity:1;stroke:none;stroke-width:1px;stroke-linecap:butt;stroke-linejoin:miter;stroke-opacity:1;font-family:Impact"
             xml:space="preserve"><tspan
               style="font-style:normal;font-weight:bold;font-family:Monospace"
               y="341.66083"
               x="193.23177"
               id="tspan3887"
               sodipodi:role="line">SYSTEM LEVEL 1</tspan></text>
        </g>
      </g>
    </g>
    <g
       id="g2652"
       transform="matrix(0.440943,0,0,0.440943,17.084306,531.82061)">
      <path
         sodipodi:type="arc"
         style="opacity:1;fill:#ffffff;fill-opacity:1;stroke:none"
         id="path2207"
         sodipodi:cx="313"
         sodipodi:cy="314"
         sodipodi:rx="282"
         sodipodi:ry="282"
         d="M 595 314 A 282 282 0 1 1  31,314 A 282 282 0 1 1  595 314 z"
         transform="matrix(1.033688,0,0,1.033688,-10.90358,-12.32806)" />
      <path
         transform="matrix(0.828014,0,0,0.828014,51.47231,52.2535)"
         d="M 595 314 A 282 282 0 1 1  31,314 A 282 282 0 1 1  595 314 z"
         sodipodi:ry="282"
         sodipodi:rx="282"
         sodipodi:cy="314"
         sodipodi:cx="313"
         id="path2186"
         style="opacity:1;fill:#ffffff;fill-opacity:1;stroke:none"
         sodipodi:type="arc" />
      <text
         sodipodi:linespacing="125%"
         xml:space="preserve"
         style="font-size:56px;font-style:normal;font-variant:normal;font-weight:normal;font-stretch:normal;text-align:start;line-height:125%;writing-mode:lr-tb;text-anchor:start;fill:#23498c;fill-opacity:1;stroke:none;stroke-width:1px;stroke-linecap:butt;stroke-linejoin:miter;stroke-opacity:1;font-family:Impact"
         id="text1942"><textPath
           style="font-size:53px"
           id="textPath2188"
           xlink:href="#path2186">I through what I'd do was, I'd pretend I was one of those deaf-mutes </textPath></text>
      <path
         style="fill:#23498c;fill-opacity:1;fill-rule:evenodd;stroke:none;stroke-width:1pt;stroke-linecap:butt;stroke-linejoin:miter;stroke-opacity:1"
         d="M 312.74999,5.7499263 C 143.55971,5.7499263 6.2499703,143.05968 6.2499703,312.24995 C 6.2499645,481.44026 143.55972,618.75 312.74999,618.75 C 466.90056,618.75006 594.55023,504.75298 616.03155,356.52662 L 592.08396,356.52662 C 570.80486,491.61511 453.78703,595.0388 312.74999,595.0388 C 156.64465,595.03874 29.961173,468.33709 29.961173,312.23177 C 29.961173,156.1264 156.64465,29.424762 312.74999,29.424762 C 453.27843,29.424763 569.93987,132.12759 591.82939,266.50042 L 615.83153,266.50042 C 593.72351,118.9865 466.39199,5.7499263 312.74999,5.7499263 z "
         id="path3026" />
      <path
         style="fill:#23498c;fill-opacity:1;fill-rule:evenodd;stroke:none;stroke-width:1pt;stroke-linecap:butt;stroke-linejoin:miter;stroke-opacity:1"
         d="M 230.14335,292.54939 C 208.49786,292.54939 190.92167,310.12557 190.92168,331.77107 C 190.92168,331.82013 190.9215,331.8675 190.92168,331.91653 C 198.38203,319.59379 213.05343,311.2056 229.92515,311.2056 C 247.11206,311.20559 261.98715,319.92448 269.31048,332.62569 C 269.3167,332.33826 269.34684,332.05998 269.34684,331.77107 C 269.34684,310.12558 251.78884,292.54938 230.14335,292.54939 z "
         id="path3428" />
      <path
         style="fill:#23498c;fill-opacity:1;fill-rule:evenodd;stroke:none;stroke-width:1pt;stroke-linecap:butt;stroke-linejoin:miter;stroke-opacity:1"
         d="M 392.65336,291.54446 C 371.00787,291.54446 353.43168,309.12063 353.43169,330.76613 C 353.43169,330.8152 353.4315,330.86257 353.43169,330.9116 C 360.89204,318.58886 375.56344,310.20067 392.43516,310.20067 C 409.62207,310.20066 424.49716,318.91955 431.82048,331.62076 C 431.82671,331.33333 431.85685,331.05504 431.85685,330.76613 C 431.85685,309.12065 414.29884,291.54445 392.65336,291.54446 z "
         id="path3431" />
      <path
         style="fill:#23498c;fill-opacity:1;fill-rule:evenodd;stroke:none;stroke-width:1pt;stroke-linecap:butt;stroke-linejoin:miter;stroke-opacity:1"
         d="M 155.84583,341.53557 C 167.41277,413.02143 232.031,467.80135 309.95046,467.80136 C 387.86992,467.80136 452.50634,413.02144 464.07328,341.53557 L 155.84583,341.53557 z M 205.54116,376.26594 L 414.35976,376.26594 C 394.31018,410.28665 355.09257,433.45284 309.95046,433.45285 C 264.80772,433.45284 225.58666,410.28742 205.54116,376.26594 z "
         id="path3432" />
      <path
         style="fill:#23498c;fill-opacity:1;fill-rule:evenodd;stroke:none;stroke-width:1pt;stroke-linecap:butt;stroke-linejoin:miter;stroke-opacity:1"
         d="M 310.62325,89.767695 C 198.66333,89.767695 106.12119,173.14854 91.585559,281.14838 L 128.78887,281.14838 C 143.01677,193.56085 219.03658,126.60734 310.62325,126.60734 C 402.20992,126.60735 478.22973,193.56086 492.45762,281.14838 L 529.64275,281.14838 C 515.10965,173.14854 422.58317,89.767695 310.62325,89.767695 z M 89.767216,301.47746 C 89.636659,304.59416 89.530831,307.7115 89.530831,310.86011 C 89.530831,432.90053 188.58283,531.95253 310.62325,531.95253 C 422.25127,531.95253 514.5827,449.06912 529.53365,341.53557 L 492.27579,341.53557 C 477.64619,428.64708 401.87173,495.11288 310.62325,495.11288 C 208.916,495.11287 126.37048,412.56737 126.37048,310.86011 C 126.37048,307.71224 126.4506,304.58674 126.60686,301.47746 L 89.767216,301.47746 z "
         id="path3443" />
      <path
         style="fill:#23498c;fill-opacity:1;fill-rule:evenodd;stroke:none;stroke-width:1pt;stroke-linecap:butt;stroke-linejoin:miter;stroke-opacity:1"
         d="M 300.88197,82.086005 L 296.58225,91.295343 L 326.83036,91.262048 L 322.39455,82.090631 L 300.88197,82.086005 z "
         id="path3452"
         sodipodi:nodetypes="ccccc" />
      <rect
         y="272"
         x="511"
         height="84"
         width="139"
         id="rect2213"
         style="opacity:1;fill:#ffffff;fill-opacity:1;stroke:none" />
      <rect
         style="fill:#23498c;fill-opacity:1;fill-rule:evenodd;stroke:none;stroke-width:1pt;stroke-linecap:butt;stroke-linejoin:miter;stroke-opacity:1"
         id="rect2802"
         width="491.69513"
         height="36.073051"
         x="122.9239"
         y="245.08177" />
      <path
         style="fill:#23498c;fill-opacity:1;fill-rule:evenodd;stroke:none;stroke-width:1pt;stroke-linecap:butt;stroke-linejoin:miter;stroke-opacity:1"
         d="M 612.0033,245.09251 L 612.0033,281.13063 C 612.02522,281.13058 612.05408,281.13062 612.07603,281.13063 C 628.47937,281.13063 643.99749,294.6491 643.99748,311.30124 C 643.99748,327.95338 628.47934,341.53042 612.07603,341.53043 C 612.0541,341.53043 612.02521,341.53047 612.0033,341.53043 L 612.0033,377.50996 C 612.05235,377.51007 612.09067,377.54858 612.13974,377.54858 C 648.83992,377.54858 680.8553,347.8524 680.85531,311.30124 C 680.85531,274.75006 648.84896,245.09251 612.14877,245.09251 C 612.09969,245.09251 612.05236,245.0924 612.0033,245.09251 z "
         id="path2792"
         sodipodi:nodetypes="ccccccccccc" />
      <rect
         style="fill:#23498c;fill-opacity:1;fill-rule:evenodd;stroke:none;stroke-width:1pt;stroke-linecap:butt;stroke-linejoin:miter;stroke-opacity:1"
         id="rect3427"
         width="121.87674"
         height="36.018555"
         x="492.74231"
         y="341.52826" />
    </g>
    <text
       xml:space="preserve"
       style="font-size:6.32956123px;font-style:normal;font-weight:normal;fill:#000000;fill-opacity:1;stroke:none;stroke-width:1px;stroke-linecap:butt;stroke-linejoin:miter;stroke-opacity:1;font-family:Code 39 JK"
       x="16.982473"
       y="717.68787"
       id="text2668"
       transform="scale(0.8653364,1.15562)"><tspan
         sodipodi:role="line"
         x="16.982473"
         y="717.68787"
         style="font-family:Bitstream Vera Sans"
         id="tspan2672">The above Laughing Man Logo is a modified </tspan><tspan
         sodipodi:role="line"
         x="16.982473"
         y="725.59982"
         style="font-family:Bitstream Vera Sans"
         id="tspan2674">version of the one by euxneks, modified the text and changed it so that it can be </tspan><tspan
         sodipodi:role="line"
         x="16.982473"
         y="733.51177"
         style="font-family:Bitstream Vera Sans"
         id="tspan2680">animated by rotating the centre text, note that in the anime the obsecured text is </tspan><tspan
         sodipodi:role="line"
         x="16.982473"
         y="741.42372"
         style="font-family:Bitstream Vera Sans"
         id="tspan2682">actually duplicated so the entire message can be read at once while being rotated.</tspan><tspan
         sodipodi:role="line"
         x="16.982473"
         y="749.33567"
         style="font-family:Bitstream Vera Sans"
         id="tspan2676">http://www.kde-look.org/content/show.php/Laughing+Man+SVG?content=19477</tspan></text>
    <g
       id="g2761"
       transform="translate(4.997368,-54.971049)">
      <path
         id="path5011"
         d="M 281.02061,855.99032 C 269.62829,855.99032 260.38254,865.23607 260.38254,876.62839 C 260.38254,888.0207 269.62829,897.26645 281.02061,897.26645 C 290.92475,897.26645 299.20616,890.27817 301.20084,880.96703 L 301.84109,880.96703 C 301.84824,880.96703 301.85541,880.96706 301.86255,880.96703 C 304.25548,880.95547 306.19404,879.00971 306.19404,876.61408 C 306.19404,874.21844 304.25549,872.27268 301.86255,872.26113 L 301.84109,872.26113 L 301.19369,872.26113 C 299.18809,862.96459 290.91438,855.99032 281.02061,855.99032 z M 281.02061,857.13489 C 290.27975,857.13489 298.0364,863.60086 300.0205,872.26113 L 295.38499,872.26113 C 293.58966,866.35365 288.24897,861.98442 281.84327,861.63807 L 281.84327,860.94417 L 280.19795,860.94417 L 280.19795,861.63807 C 272.9867,862.02797 267.12497,867.5156 266.1519,874.55743 L 267.7865,874.55743 L 268.51974,874.55743 L 293.52506,874.55743 L 295.88931,874.55743 L 300.40322,874.55743 L 301.55495,874.55743 L 301.68013,874.55743 L 301.68013,874.56458 C 301.73414,874.56033 301.786,874.55743 301.84109,874.55743 C 302.97766,874.55743 303.90132,875.47751 303.90132,876.61408 C 303.90132,877.75065 302.97766,878.67431 301.84109,878.67431 C 301.786,878.67431 301.73414,878.67141 301.68013,878.66716 L 301.68013,878.67431 L 301.55852,878.67431 L 300.4068,878.67431 L 295.89289,878.67431 L 293.80047,878.67431 L 293.52863,878.67431 C 292.5492,884.69723 287.31871,889.30094 281.02061,889.30094 C 274.02581,889.30094 268.35163,883.62319 268.35163,876.62839 C 268.35163,876.29317 268.36539,875.96273 268.39097,875.63404 L 266.04102,875.63404 C 266.01949,875.96281 266.00883,876.2942 266.00883,876.62839 C 266.00883,884.91495 272.73404,891.64016 281.02061,891.64016 C 287.79802,891.64016 293.52891,887.13938 295.39214,880.96703 L 300.02408,880.96703 C 298.0494,889.64029 290.28898,896.12188 281.02061,896.12188 C 270.26044,896.12188 261.52712,887.38856 261.52712,876.62839 C 261.52712,865.86821 270.26044,857.13489 281.02061,857.13489 z M 281.02061,863.95583 C 286.48071,863.95583 291.13591,867.41592 292.917,872.26113 L 269.12421,872.26113 C 270.90432,867.41592 275.56051,863.95583 281.02061,863.95583 z "
         style="fill:#014c74;fill-opacity:1;stroke:none" />
      <path
         sodipodi:nodetypes="cccsccc"
         id="rect1966"
         d="M 275.42651,875.48381 C 273.99461,875.48381 272.80404,876.52017 272.5472,877.88742 L 272.7475,877.88742 C 273.35995,877.10313 274.31148,876.60335 275.39432,876.60335 C 276.47716,876.60335 277.4634,877.10313 278.13056,877.88742 L 278.3094,877.88742 C 278.05257,876.52017 276.85841,875.48381 275.42651,875.48381 z "
         style="fill:#014c74;fill-opacity:1;stroke:none" />
      <path
         style="fill:#014c74;fill-opacity:1;stroke:none"
         d="M 286.64332,875.48381 C 285.21142,875.48381 284.02084,876.52017 283.764,877.88742 L 283.9643,877.88742 C 284.57676,877.10313 285.52829,876.60335 286.61113,876.60335 C 287.69397,876.60335 288.6802,877.10313 289.34737,877.88742 L 289.52621,877.88742 C 289.26937,876.52017 288.07522,875.48381 286.64332,875.48381 z "
         id="path1978"
         sodipodi:nodetypes="cccsccc" />
      <path
         id="path1980"
         d="M 270.07922,878.67431 C 271.03422,883.86655 275.58606,887.80585 281.0528,887.80585 C 286.51954,887.80585 291.06843,883.86655 292.02281,878.67431 L 270.07922,878.67431 z M 273.67031,880.97061 L 288.43171,880.97061 C 286.94597,883.5013 284.19876,885.20195 281.0528,885.20195 C 277.90676,885.20195 275.15714,883.50141 273.67031,880.97061 z "
         style="fill:#014c74;fill-opacity:1;stroke:none" />
      <text
         id="text5084"
         y="855.23248"
         x="259.43781"
         style="font-size:1.3734864px;font-style:normal;font-weight:normal;fill:#014c74;fill-opacity:1;stroke:none;stroke-width:1px;stroke-linecap:butt;stroke-linejoin:miter;stroke-opacity:1;font-family:Bitstream Vera Sans"
         xml:space="preserve"><tspan
           style="font-weight:bold;fill:#014c74;fill-opacity:1;font-family:FreeSans"
           y="855.23248"
           x="259.43781"
           id="tspan5086"
           sodipodi:role="line">I thought what I'd do was I'd pretend i was one of those deaf-mutes</tspan></text>
    </g>
    <text
       xml:space="preserve"
       style="font-size:3.08300304px;font-style:normal;font-weight:normal;fill:#000000;fill-opacity:1;stroke:none;stroke-width:1px;stroke-linecap:butt;stroke-linejoin:miter;stroke-opacity:1;font-family:Code 39 JK"
       x="280.46228"
       y="790.78351"
       id="text2757"
       transform="scale(0.9355888,1.0688456)"><tspan
         sodipodi:role="line"
         x="280.46228"
         y="790.78351"
         style="font-family:Bitstream Vera Sans"
         id="tspan2769">My own version i never finshed.</tspan></text>
    <text
       xml:space="preserve"
       style="font-size:12px;font-style:normal;font-weight:normal;fill:#000000;fill-opacity:1;stroke:none;stroke-width:1px;stroke-linecap:butt;stroke-linejoin:miter;stroke-opacity:1;font-family:Code 39 JK"
       x="258.05844"
       y="862.67389"
       id="text2773"><tspan
         sodipodi:role="line"
         id="tspan2775"
         x="258.05844"
         y="862.67389"
         style="font-family:cmmi10">- H3g3m0n</tspan></text>
    <text
       xml:space="preserve"
       style="font-size:6.19298887px;font-style:normal;font-weight:normal;fill:#000000;fill-opacity:1;stroke:none;stroke-width:1px;stroke-linecap:butt;stroke-linejoin:miter;stroke-opacity:1;font-family:Code 39 JK"
       x="13.998757"
       y="485.24271"
       id="text2777"
       transform="scale(0.9520488,1.0503664)"><tspan
         sodipodi:role="line"
         id="tspan2779"
         x="13.998757"
         y="485.24271"
         style="font-family:Bitstream Vera Sans">* INTER GATE: the gates that </tspan><tspan
         sodipodi:role="line"
         x="13.998757"
         y="492.98394"
         style="font-family:Bitstream Vera Sans"
         id="tspan2799">features in some of the cyberspace </tspan><tspan
         sodipodi:role="line"
         x="13.998757"
         y="500.72518"
         style="font-family:Bitstream Vera Sans"
         id="tspan2801">scenes.</tspan></text>
    <text
       xml:space="preserve"
       style="font-size:4.5270319px;font-style:normal;font-weight:normal;fill:#000000;fill-opacity:1;stroke:none;stroke-width:1px;stroke-linecap:butt;stroke-linejoin:miter;stroke-opacity:1;font-family:Bitstream Vera Sans"
       x="241.96126"
       y="206.16411"
       id="text2803"
       transform="scale(0.8278622,1.2079305)"><tspan
         sodipodi:role="line"
         id="tspan2805"
         x="241.96126"
         y="206.16411">* Communication Window: The comunication window that </tspan><tspan
         sodipodi:role="line"
         x="241.96126"
         y="211.8229"
         id="tspan2807">is shown when characters are talking with each other via </tspan><tspan
         sodipodi:role="line"
         x="241.96126"
         y="217.48169"
         id="tspan2809">their cyberbrains. Similar windows are used for documents, </tspan><tspan
         sodipodi:role="line"
         x="241.96126"
         y="223.14048"
         id="tspan2811">emails etc... so it might make a good template for the other</tspan><tspan
         sodipodi:role="line"
         x="241.96126"
         y="228.79927"
         id="tspan2813">types of windows.</tspan></text>
    <text
       xml:space="preserve"
       style="font-size:5.78337383px;font-style:normal;font-weight:normal;fill:#000000;fill-opacity:1;stroke:none;stroke-width:1px;stroke-linecap:butt;stroke-linejoin:miter;stroke-opacity:1;font-family:Bitstream Vera Sans"
       x="17.377363"
       y="623.82886"
       id="text2815"
       transform="scale(0.7718012,1.2956705)"><tspan
         sodipodi:role="line"
         id="tspan2817"
         x="17.377363"
         y="623.82886">* Laughing Man Logo: The logo the puppet master</tspan><tspan
         sodipodi:role="line"
         x="17.377363"
         y="631.05807"
         id="tspan2819">uses to obsecure himself from public view</tspan></text>
  </g>
</svg>
